# Blender v2.93.6 OBJ File: 'tmp.blend'
# www.blender.org
mtllib c_gun.mtl
o Gun_Cube.001
v -1.717740 -2.559566 0.566674
v -1.739048 -2.550576 1.166228
v -2.317362 -2.559566 0.545364
v -2.338670 -2.550576 1.144918
v -1.716676 -0.559791 0.536727
v -1.737984 -0.550801 1.136281
v -2.316297 -0.559791 0.515416
v -2.337605 -0.550801 1.114970
v -1.717446 -1.157308 0.558395
v -1.717127 -0.557376 0.549411
v -2.317068 -1.157308 0.537085
v -2.316748 -0.557376 0.528101
v -1.686813 -1.170232 -0.303528
v -1.686494 -0.570300 -0.312512
v -2.286435 -1.170232 -0.324839
v -2.286116 -0.570300 -0.333823
vt 0.375000 0.000000
vt 0.625000 0.000000
vt 0.625000 0.250000
vt 0.375000 0.250000
vt 0.625000 0.500000
vt 0.375000 0.500000
vt 0.625000 0.750000
vt 0.375000 0.750000
vt 0.625000 1.000000
vt 0.375000 1.000000
vt 0.125000 0.500000
vt 0.125000 0.750000
vt 0.875000 0.500000
vt 0.875000 0.750000
vt 0.375000 0.000000
vt 0.625000 0.000000
vt 0.625000 0.250000
vt 0.375000 0.250000
vt 0.625000 0.500000
vt 0.375000 0.500000
vt 0.625000 0.750000
vt 0.375000 0.750000
vt 0.625000 1.000000
vt 0.375000 1.000000
vt 0.125000 0.500000
vt 0.125000 0.750000
vt 0.875000 0.500000
vt 0.875000 0.750000
vn -0.0005 -0.9999 0.0150
vn -0.9994 0.0000 -0.0355
vn 0.0005 0.9999 -0.0150
vn 0.9994 0.0000 0.0355
vn 0.0355 -0.0150 -0.9993
vn -0.0355 0.0150 0.9993
usemtl None
s off
f 1/1/1 2/2/1 4/3/1 3/4/1
f 3/4/2 4/3/2 8/5/2 7/6/2
f 7/6/3 8/5/3 6/7/3 5/8/3
f 5/8/4 6/7/4 2/9/4 1/10/4
f 3/11/5 7/6/5 5/8/5 1/12/5
f 8/5/6 4/13/6 2/14/6 6/7/6
f 9/15/6 10/16/6 12/17/6 11/18/6
f 11/18/2 12/17/2 16/19/2 15/20/2
f 15/20/5 16/19/5 14/21/5 13/22/5
f 13/22/4 14/21/4 10/23/4 9/24/4
f 11/25/1 15/20/1 13/22/1 9/26/1
f 16/19/3 12/27/3 10/28/3 14/21/3
